<svg version="1.1" id="Layer_1" xmlns="http://www.w3.org/2000/svg" xmlns:xlink="http://www.w3.org/1999/xlink" x="0px" y="0px"
	 width="100%" viewBox="0 0 74 74" enable-background="new 0 0 74 74" xml:space="preserve">
<path fill="#FFFFFF" opacity="1.000000" stroke="none" 
	d="
M1.000000,56.000000 
	C1.000000,43.645771 1.000000,31.291544 1.329479,18.764200 
	C3.662063,12.680182 6.879685,7.611639 11.803133,3.667927 
	C12.683141,2.963035 13.275061,1.898484 14.000000,1.000000 
	C30.020895,1.000000 46.041790,1.000000 62.243607,1.295482 
	C66.848579,5.253604 72.069527,8.193456 73.917114,14.217571 
	C73.927818,14.252471 74.623947,14.077151 75.000000,14.000000 
	C75.000000,29.020895 75.000000,44.041790 74.699745,59.242203 
	C69.990402,65.783249 65.632156,72.202965 57.104477,73.552132 
	C56.996010,73.569290 57.031631,74.497192 57.000000,75.000000 
	C45.645771,75.000000 34.291542,75.000000 22.767191,74.655380 
	C22.254881,73.952477 21.943222,73.317856 21.566061,73.276192 
	C11.301796,72.142349 5.081925,66.555923 2.782298,56.495098 
	C2.716951,56.209209 1.617348,56.159718 1.000000,56.000000 
M51.996063,25.709492 
	C51.996063,36.114563 51.996063,46.519634 51.996063,57.093216 
	C54.367142,56.962185 56.107121,56.866028 57.723427,56.776711 
	C57.723427,43.321068 57.723427,30.278093 57.723427,17.232399 
	C44.727882,17.232399 32.010288,17.232399 19.221197,17.232399 
	C19.221197,19.534433 19.221197,21.600092 19.221197,24.000000 
	C25.549740,24.000000 31.665392,23.906008 37.776604,24.030312 
	C42.501801,24.126421 47.221439,24.495970 51.996063,25.709492 
M29.198050,29.269194 
	C22.402561,32.232243 18.368425,36.867664 18.942215,44.838005 
	C19.426512,51.565250 25.404148,57.087032 32.701714,56.999966 
	C39.553871,56.918221 45.410217,51.217083 46.092533,44.933052 
	C47.002972,36.548126 39.653179,28.140499 29.198050,29.269194 
z"/>
<path fill="#000000" opacity="1.000000" stroke="none" 
	d="
M1.000000,56.469376 
	C1.617348,56.159718 2.716951,56.209209 2.782298,56.495098 
	C5.081925,66.555923 11.301796,72.142349 21.566061,73.276192 
	C21.943222,73.317856 22.254881,73.952477 22.298534,74.655380 
	C15.077753,75.000000 8.155507,75.000000 1.000000,75.000000 
	C1.000000,68.981575 1.000000,62.960163 1.000000,56.469376 
z"/>
<path fill="#000000" opacity="1.000000" stroke="none" 
	d="
M57.469711,75.000000 
	C57.031631,74.497192 56.996010,73.569290 57.104477,73.552132 
	C65.632156,72.202965 69.990402,65.783249 74.699745,59.710861 
	C75.000000,64.932396 75.000000,69.864792 75.000000,75.000000 
	C69.314247,75.000000 63.626831,75.000000 57.469711,75.000000 
z"/>
<path fill="#000000" opacity="1.000000" stroke="none" 
	d="
M13.523338,1.000000 
	C13.275061,1.898484 12.683141,2.963035 11.803133,3.667927 
	C6.879685,7.611639 3.662063,12.680182 1.329479,18.295544 
	C1.000000,12.420412 1.000000,6.840825 1.000000,1.000000 
	C5.011857,1.000000 9.029266,1.000000 13.523338,1.000000 
z"/>
<path fill="#000000" opacity="1.000000" stroke="none" 
	d="
M75.000000,13.523338 
	C74.623947,14.077151 73.927818,14.252471 73.917114,14.217571 
	C72.069527,8.193456 66.848579,5.253604 62.712265,1.295482 
	C66.925987,1.000000 70.851974,1.000000 75.000000,1.000000 
	C75.000000,5.013897 75.000000,9.030287 75.000000,13.523338 
z"/>
<path fill="#000000" opacity="1.000000" stroke="none" 
	d="
M51.969803,25.226723 
	C47.221439,24.495970 42.501801,24.126421 37.776604,24.030312 
	C31.665392,23.906008 25.549740,24.000000 19.221197,24.000000 
	C19.221197,21.600092 19.221197,19.534433 19.221197,17.232399 
	C32.010288,17.232399 44.727882,17.232399 57.723427,17.232399 
	C57.723427,30.278093 57.723427,43.321068 57.723427,56.776711 
	C56.107121,56.866028 54.367142,56.962185 51.996063,57.093216 
	C51.996063,46.519634 51.996063,36.114563 51.969803,25.226723 
z"/>
<path fill="#000000" opacity="1.000000" stroke="none" 
	d="
M29.591795,29.143909 
	C39.653179,28.140499 47.002972,36.548126 46.092533,44.933052 
	C45.410217,51.217083 39.553871,56.918221 32.701714,56.999966 
	C25.404148,57.087032 19.426512,51.565250 18.942215,44.838005 
	C18.368425,36.867664 22.402561,32.232243 29.591795,29.143909 
M36.911411,49.611759 
	C37.939026,48.199009 39.587357,46.899643 39.870270,45.350861 
	C40.543339,41.666206 39.924316,37.932556 36.134083,36.099457 
	C32.480694,34.332539 28.354336,34.842636 26.444956,38.390457 
	C25.154026,40.789139 24.969639,44.900719 26.186546,47.273735 
	C28.082968,50.971836 31.979710,52.291862 36.911411,49.611759 
z"/>
<path fill="#FFFFFF" opacity="1.000000" stroke="none" 
	d="
M36.553680,49.795158 
	C31.979710,52.291862 28.082968,50.971836 26.186546,47.273735 
	C24.969639,44.900719 25.154026,40.789139 26.444956,38.390457 
	C28.354336,34.842636 32.480694,34.332539 36.134083,36.099457 
	C39.924316,37.932556 40.543339,41.666206 39.870270,45.350861 
	C39.587357,46.899643 37.939026,48.199009 36.553680,49.795158 
z"/>
</svg>